<svg width="164" height="164" viewBox="0 0 164 164" fill="none" xmlns="http://www.w3.org/2000/svg">
<path d="M139 125.962C139 153.667 123.535 177.402 82 153.603C39.1394 178.82 25 153.667 25 125.962C24.9999 106.964 50.5198 63 82 63C113.48 63 139 112.165 139 125.962Z" fill="white"/>
<path d="M164 69.7961C164 81.5067 155.717 91 145.5 91C135.283 91 127 81.5067 127 69.7961C127 58.0855 135.283 39 145.5 39C155.717 39 164 58.0855 164 69.7961Z" fill="white"/>
<path d="M127 34.6038C127 46.4206 118.27 56 107.5 56C96.7304 56 88 46.4206 88 34.6038C88 22.787 96.7304 2 107.5 2C118.27 2 127 22.787 127 34.6038Z" fill="white"/>
<path d="M79 33.6111C79 45.4239 70.2696 55 59.5 55C48.7304 55 40 45.4239 40 33.6111C40 21.7984 48.7304 0 59.5 0C70.2696 0 79 21.7984 79 33.6111Z" fill="white"/>
<path d="M37 69.1429C37 81.2142 28.7173 91 18.5 91C8.28273 91 0 81.2142 0 69.1429C0 57.0715 8.28273 40 18.5 40C28.7173 40 37 57.0715 37 69.1429Z" fill="white"/>
</svg>
