<svg width="150" height="140" viewBox="0 0 150 140" fill="none" xmlns="http://www.w3.org/2000/svg">
<path d="M144 44.0827C144 62.6669 135.489 79.2179 122.034 94.33C109.188 108.759 92.1839 121.476 74.8479 132.926C57.7155 122.57 40.7901 109.88 27.997 95.241C14.546 79.8489 6 62.7057 6 44.0827C6 25.8968 16.9571 11.3737 29.4616 7.42929C35.5506 5.50862 42.2394 5.97343 48.8431 9.92602C55.5592 13.9459 62.5934 21.8362 68.4872 35.4587C70.9678 41.1922 79.1723 41.0674 81.5106 35.311C87.1103 21.5258 93.9988 13.5948 100.626 9.57588C107.137 5.62678 113.847 5.16365 120.038 7.13464C132.778 11.1909 144 25.9618 144 44.0827Z" stroke="white" stroke-width="12"/>
</svg>
